<svg id="svg" version="1.1" xmlns="http://www.w3.org/2000/svg" xmlns:xlink="http://www.w3.org/1999/xlink" width="400" height="235.97053932050366" viewBox="0, 0, 400,235.97053932050366"><g id="svgg"><path id="path0" d="M310.750 1.105 C 309.100 1.690,306.700 2.536,305.417 2.987 C 304.133 3.437,301.790 4.262,300.208 4.819 C 295.940 6.325,291.961 7.727,288.500 8.946 C 286.804 9.543,284.142 10.480,282.583 11.029 C 281.025 11.578,277.237 12.875,274.167 13.912 C 268.794 15.727,265.548 16.944,260.917 18.880 C 259.725 19.379,257.587 20.256,256.167 20.831 C 254.746 21.406,253.358 21.975,253.083 22.095 C 252.808 22.215,251.646 22.697,250.500 23.167 C 248.451 24.005,247.751 24.295,240.417 27.335 C 238.400 28.171,235.662 29.306,234.333 29.856 C 233.004 30.406,231.692 30.958,231.417 31.082 C 231.142 31.207,230.279 31.568,229.500 31.885 C 228.721 32.202,227.633 32.654,227.083 32.890 C 226.533 33.126,223.458 34.416,220.250 35.758 C 212.393 39.044,198.934 44.771,191.583 47.956 C 190.117 48.591,188.775 49.163,188.601 49.226 C 187.593 49.594,188.728 49.407,190.426 48.927 C 191.521 48.617,193.692 48.014,195.250 47.587 C 196.808 47.159,199.246 46.482,200.667 46.082 C 202.088 45.681,204.900 44.890,206.917 44.323 C 212.179 42.846,231.796 37.224,236.167 35.941 C 236.946 35.712,238.483 35.262,239.583 34.940 C 240.683 34.618,242.240 34.162,243.042 33.927 C 246.356 32.956,247.541 32.611,250.000 31.900 C 251.421 31.489,253.033 31.013,253.583 30.842 C 254.133 30.670,255.746 30.189,257.167 29.771 C 269.790 26.063,272.463 25.219,276.750 23.588 C 279.230 22.644,281.186 21.929,283.833 20.998 C 285.346 20.466,288.421 19.379,290.667 18.582 C 292.912 17.785,295.575 16.848,296.583 16.499 C 297.592 16.150,299.710 15.408,301.292 14.849 C 302.873 14.290,305.460 13.377,307.042 12.818 C 308.623 12.260,310.313 11.664,310.796 11.493 L 311.676 11.181 314.546 13.641 C 316.125 14.993,319.479 17.861,322.000 20.014 C 324.521 22.167,329.246 26.205,332.500 28.987 C 335.754 31.769,338.792 34.365,339.250 34.756 C 341.028 36.271,346.463 40.916,347.333 41.664 C 347.837 42.097,349.563 43.572,351.167 44.942 C 360.540 52.950,367.518 58.913,372.000 62.745 C 374.796 65.136,378.839 68.590,380.986 70.421 C 386.625 75.232,387.333 75.856,387.333 76.011 C 387.333 76.087,384.999 80.372,382.146 85.533 C 375.851 96.921,374.799 98.829,372.922 102.250 C 372.118 103.717,371.404 104.992,371.336 105.083 C 371.269 105.175,370.893 105.850,370.501 106.583 C 370.109 107.317,369.245 108.892,368.581 110.083 C 367.917 111.275,365.967 114.800,364.247 117.917 C 362.528 121.033,360.392 124.896,359.501 126.500 C 358.610 128.104,356.472 131.967,354.751 135.083 C 350.320 143.104,349.261 145.020,347.379 148.417 C 346.465 150.067,344.871 152.954,343.836 154.833 C 342.802 156.712,341.451 159.150,340.835 160.250 C 340.218 161.350,338.268 164.875,336.502 168.083 C 334.736 171.292,332.749 174.892,332.086 176.083 C 331.423 177.275,330.590 178.789,330.235 179.448 C 329.602 180.621,329.570 180.650,328.669 180.888 C 328.164 181.021,326.643 181.437,325.291 181.813 C 323.938 182.188,321.763 182.789,320.458 183.150 C 319.152 183.510,316.283 184.305,314.083 184.918 C 311.883 185.530,308.996 186.330,307.667 186.694 C 306.337 187.059,304.762 187.495,304.167 187.662 C 302.836 188.035,298.876 189.132,295.750 189.993 C 294.467 190.347,291.617 191.136,289.417 191.747 C 287.217 192.359,284.329 193.159,283.000 193.527 C 281.671 193.894,279.496 194.496,278.167 194.865 C 276.837 195.233,275.262 195.669,274.667 195.833 C 274.071 195.998,272.477 196.439,271.124 196.813 C 269.772 197.188,267.597 197.789,266.291 198.148 C 264.985 198.507,262.117 199.304,259.917 199.918 C 257.717 200.531,254.848 201.327,253.542 201.686 C 252.237 202.045,250.062 202.645,248.709 203.020 C 247.357 203.395,245.762 203.836,245.167 204.000 C 243.358 204.499,239.308 205.622,236.708 206.345 C 235.356 206.721,233.762 207.164,233.167 207.329 C 228.495 208.621,226.084 209.288,224.000 209.863 C 222.671 210.230,220.908 210.719,220.083 210.949 C 219.258 211.180,218.358 211.428,218.083 211.500 C 217.808 211.572,216.908 211.820,216.083 212.051 C 213.094 212.886,209.535 213.873,207.250 214.501 C 205.967 214.854,204.204 215.343,203.333 215.587 C 202.463 215.831,200.850 216.279,199.750 216.581 C 197.641 217.162,192.309 218.640,191.761 218.796 C 191.381 218.905,191.483 218.744,193.409 216.197 C 195.211 213.814,195.786 212.996,196.360 212.000 C 197.157 210.616,200.597 204.426,203.122 199.833 C 204.357 197.588,205.614 195.300,205.917 194.750 C 206.595 193.518,206.656 193.405,209.943 187.250 C 211.412 184.500,213.230 181.050,213.983 179.583 L 215.353 176.917 214.301 178.006 C 210.675 181.763,203.641 189.331,197.731 195.833 C 191.012 203.226,187.553 207.216,186.465 208.828 C 185.428 210.365,178.256 220.471,170.119 231.860 C 168.671 233.886,167.511 235.567,167.540 235.596 C 167.569 235.625,168.378 235.434,169.338 235.172 C 172.195 234.393,175.754 233.411,178.417 232.668 C 179.792 232.284,182.679 231.482,184.833 230.886 C 186.987 230.290,189.838 229.502,191.167 229.134 C 192.496 228.766,194.071 228.331,194.667 228.167 C 196.371 227.697,200.521 226.547,203.167 225.812 C 204.496 225.442,206.633 224.852,207.917 224.499 C 209.200 224.146,210.963 223.657,211.833 223.413 C 212.704 223.169,214.317 222.721,215.417 222.419 C 216.517 222.116,218.692 221.514,220.250 221.082 C 221.808 220.649,223.571 220.162,224.167 219.999 C 225.386 219.665,230.059 218.370,232.583 217.667 C 233.500 217.411,235.075 216.973,236.083 216.694 C 237.092 216.414,238.892 215.915,240.083 215.583 C 242.159 215.006,244.182 214.448,249.376 213.018 C 251.683 212.383,253.824 211.789,257.250 210.833 C 258.167 210.577,259.929 210.094,261.167 209.760 C 262.404 209.425,263.904 209.009,264.500 208.836 C 265.096 208.663,266.708 208.211,268.083 207.831 C 269.458 207.452,271.483 206.891,272.583 206.586 C 273.683 206.280,275.858 205.681,277.417 205.254 C 278.975 204.826,281.412 204.150,282.833 203.751 C 285.583 202.979,288.496 202.174,293.083 200.918 C 294.642 200.491,296.254 200.039,296.667 199.913 C 297.079 199.787,298.429 199.409,299.667 199.073 C 302.839 198.213,305.316 197.530,309.917 196.248 C 312.117 195.635,314.967 194.847,316.250 194.497 C 317.533 194.147,319.708 193.546,321.083 193.163 C 322.458 192.779,324.071 192.331,324.667 192.167 C 325.262 192.002,326.875 191.555,328.250 191.172 C 329.625 190.789,331.575 190.253,332.583 189.981 C 336.549 188.910,336.029 189.213,337.055 187.373 C 338.811 184.221,340.463 181.238,341.000 180.250 C 341.299 179.700,342.085 178.275,342.746 177.083 C 343.408 175.892,344.553 173.829,345.291 172.500 C 346.029 171.171,346.838 169.708,347.088 169.250 C 347.554 168.395,349.290 165.255,351.419 161.417 C 352.080 160.225,353.466 157.712,354.500 155.833 C 355.534 153.954,356.922 151.442,357.586 150.250 C 358.250 149.058,360.200 145.533,361.920 142.417 C 363.640 139.300,365.587 135.775,366.247 134.583 C 366.908 133.392,367.695 131.967,367.997 131.417 C 368.846 129.868,371.091 125.814,372.427 123.417 C 373.091 122.225,373.876 120.800,374.172 120.250 C 374.468 119.700,375.214 118.350,375.831 117.250 C 376.447 116.150,377.798 113.712,378.832 111.833 C 379.866 109.954,381.252 107.442,381.913 106.250 C 382.574 105.058,383.962 102.546,384.998 100.667 C 386.034 98.787,387.423 96.275,388.085 95.083 C 388.747 93.892,390.697 90.367,392.418 87.250 C 394.139 84.133,396.276 80.271,397.166 78.667 C 398.057 77.063,399.036 75.285,399.343 74.717 L 399.900 73.684 399.086 72.967 C 398.639 72.573,398.039 72.063,397.755 71.833 C 397.470 71.604,395.965 70.326,394.410 68.992 C 391.839 66.787,386.816 62.492,376.000 53.250 C 373.846 51.410,369.758 47.916,366.917 45.487 C 359.982 39.559,350.832 31.739,346.750 28.252 C 340.499 22.911,335.422 18.572,328.417 12.584 C 324.567 9.293,319.879 5.290,318.000 3.689 C 316.121 2.087,314.396 0.611,314.167 0.410 L 313.750 0.043 310.750 1.105 M285.250 65.602 C 258.262 68.268,241.910 86.533,241.922 114.000 C 241.936 145.140,262.524 163.172,294.667 160.195 C 301.358 159.575,311.178 157.199,311.601 156.098 C 311.666 155.929,311.220 154.134,309.477 147.542 C 309.255 146.699,309.327 146.709,307.887 147.322 C 300.040 150.661,287.496 151.459,278.741 149.177 C 263.148 145.112,254.403 132.221,254.424 113.333 C 254.440 98.638,259.609 87.534,269.417 81.123 C 279.810 74.328,295.739 73.513,308.774 79.107 C 308.890 79.157,309.100 78.772,309.306 78.136 C 309.700 76.921,311.833 69.721,311.833 69.607 C 311.833 69.404,307.839 67.902,305.833 67.351 C 300.715 65.945,290.536 65.080,285.250 65.602 M101.333 72.000 L 101.333 77.000 115.333 77.000 L 129.333 77.000 129.333 118.083 L 129.333 159.167 135.333 159.167 L 141.333 159.167 141.333 118.083 L 141.333 77.000 155.417 77.000 L 169.500 77.000 169.500 72.000 L 169.500 67.000 135.417 67.000 L 101.333 67.000 101.333 72.000 M179.833 113.083 L 179.833 159.167 205.836 159.167 L 231.838 159.167 231.794 154.208 L 231.750 149.250 211.792 149.208 L 191.833 149.165 191.833 132.583 L 191.833 116.000 209.750 116.000 L 227.667 116.000 227.667 111.083 L 227.667 106.167 209.750 106.167 L 191.833 106.167 191.833 91.583 L 191.833 77.000 210.750 77.000 L 229.667 77.000 229.667 72.000 L 229.667 67.000 204.750 67.000 L 179.833 67.000 179.833 113.083 M0.333 91.710 C 0.333 91.757,1.154 94.281,4.357 104.083 C 5.555 107.750,7.135 112.587,7.868 114.833 C 8.601 117.079,9.411 119.554,9.667 120.333 C 9.924 121.112,11.196 124.995,12.493 128.962 L 14.852 136.174 18.032 136.129 L 21.212 136.083 23.011 131.083 C 24.000 128.333,25.908 123.008,27.250 119.250 C 29.621 112.612,30.491 110.183,34.900 97.896 C 36.055 94.677,37.000 91.956,37.000 91.851 C 37.000 91.712,36.169 91.672,33.977 91.705 L 30.954 91.750 28.991 97.500 C 27.911 100.662,26.230 105.575,25.254 108.417 C 21.607 119.037,20.105 123.687,19.064 127.583 C 18.378 130.151,18.350 130.239,18.243 130.132 C 18.198 130.086,17.934 129.119,17.656 127.983 C 16.779 124.386,15.517 120.127,12.721 111.333 C 12.124 109.454,11.199 106.527,10.667 104.828 C 10.134 103.129,9.434 100.917,9.111 99.911 C 8.788 98.906,8.065 96.640,7.504 94.875 L 6.484 91.667 3.409 91.667 C 1.717 91.667,0.333 91.686,0.333 91.710 M49.913 91.875 C 49.871 91.990,49.618 92.721,49.351 93.500 C 48.747 95.258,38.932 124.107,36.252 132.000 C 35.583 133.971,34.982 135.715,34.916 135.875 C 34.806 136.146,35.006 136.167,37.780 136.167 L 40.762 136.167 43.077 129.167 L 45.392 122.167 53.284 122.167 L 61.175 122.167 61.354 122.625 C 61.452 122.877,62.526 126.008,63.740 129.583 L 65.948 136.083 69.032 136.129 L 72.115 136.174 70.988 132.879 C 70.369 131.066,68.911 126.808,67.750 123.417 C 66.589 120.025,65.052 115.525,64.336 113.417 C 63.619 111.308,62.120 106.921,61.005 103.667 C 59.889 100.412,58.514 96.381,57.947 94.708 L 56.918 91.667 53.454 91.667 C 50.834 91.667,49.971 91.717,49.913 91.875 M78.667 113.917 L 78.667 136.167 81.417 136.167 L 84.167 136.167 84.163 125.292 C 84.159 115.090,83.992 105.561,83.734 100.875 C 83.598 98.399,83.684 98.370,84.738 100.537 C 86.922 105.030,89.253 108.958,98.169 123.167 C 101.592 128.621,104.814 133.758,105.329 134.583 L 106.267 136.083 109.217 136.129 L 112.167 136.174 112.167 113.921 L 112.167 91.667 109.394 91.667 L 106.621 91.667 106.721 105.875 C 106.777 113.690,106.895 121.246,106.985 122.667 C 107.074 124.087,107.195 126.037,107.253 127.000 L 107.358 128.750 105.705 125.500 C 103.041 120.264,102.074 118.643,94.416 106.583 C 92.204 103.100,89.174 98.319,87.683 95.958 L 84.972 91.667 81.819 91.667 L 78.667 91.667 78.667 113.917 M54.069 99.500 C 54.654 101.780,55.947 105.763,58.773 113.991 C 59.448 115.957,60.000 117.588,60.000 117.616 C 60.000 117.644,57.000 117.667,53.333 117.667 C 49.667 117.667,46.667 117.608,46.667 117.535 C 46.667 117.463,47.675 114.431,48.908 110.798 C 50.817 105.169,52.237 100.571,53.007 97.520 C 53.257 96.531,53.352 96.708,54.069 99.500 " stroke="none" fill="#142c53" fill-rule="evenodd"></path><path id="path1" d="M0.000 117.917 L 0.000 235.834 83.609 235.792 L 167.218 235.750 175.617 224.000 C 180.236 217.537,184.833 211.050,185.832 209.583 C 187.047 207.799,188.514 205.951,190.263 204.000 C 194.347 199.445,199.981 193.207,201.095 192.007 C 201.651 191.407,203.558 189.342,205.332 187.417 C 210.055 182.291,215.395 176.673,215.471 176.749 C 215.630 176.908,207.340 192.465,201.082 203.750 C 195.702 213.453,196.059 212.886,191.947 218.296 C 191.646 218.693,191.939 218.663,193.929 218.098 C 195.022 217.787,197.192 217.183,198.750 216.756 C 200.308 216.328,202.221 215.799,203.000 215.580 C 204.736 215.092,214.524 212.376,217.833 211.465 C 221.457 210.466,222.193 210.263,224.917 209.509 C 226.292 209.128,228.467 208.528,229.750 208.175 C 231.033 207.822,234.971 206.731,238.500 205.750 C 244.143 204.182,246.477 203.535,250.833 202.333 C 255.189 201.132,257.523 200.485,263.167 198.917 C 266.696 197.936,270.633 196.845,271.917 196.493 C 273.200 196.141,275.225 195.581,276.417 195.249 C 277.608 194.917,279.221 194.470,280.000 194.255 C 280.779 194.040,282.504 193.562,283.833 193.193 C 285.162 192.824,287.375 192.214,288.750 191.838 C 290.125 191.461,292.150 190.899,293.250 190.589 C 294.350 190.279,296.525 189.675,298.083 189.247 C 299.642 188.820,301.817 188.218,302.917 187.910 C 304.017 187.602,308.742 186.293,313.417 185.001 C 318.092 183.708,322.817 182.399,323.917 182.092 C 325.017 181.784,326.667 181.327,327.583 181.076 C 329.656 180.507,329.420 180.721,330.852 178.113 C 332.124 175.796,336.972 167.028,339.163 163.083 C 339.876 161.800,342.053 157.862,344.002 154.333 C 345.951 150.804,348.086 146.942,348.747 145.750 C 350.065 143.374,351.073 141.551,355.751 133.083 C 357.472 129.967,359.650 126.029,360.589 124.333 C 362.658 120.600,367.178 112.423,371.415 104.750 C 375.262 97.783,376.652 95.270,378.789 91.417 C 379.704 89.767,381.860 85.867,383.580 82.750 C 385.300 79.633,386.851 76.830,387.027 76.521 C 387.203 76.211,387.325 75.943,387.298 75.925 C 387.209 75.863,370.719 61.780,361.333 53.750 C 357.400 50.384,347.162 41.635,339.083 34.736 C 326.261 23.786,321.214 19.468,319.356 17.863 C 318.223 16.884,316.975 15.821,316.585 15.500 C 316.194 15.179,314.922 14.102,313.759 13.106 L 311.645 11.296 309.281 12.131 C 307.981 12.591,303.504 14.169,299.333 15.637 C 282.077 21.712,279.846 22.503,278.333 23.085 C 272.289 25.410,271.094 25.786,251.667 31.498 C 243.465 33.909,242.112 34.305,240.042 34.907 C 238.919 35.233,237.119 35.757,236.042 36.072 C 228.976 38.133,212.351 42.899,206.083 44.659 C 197.723 47.007,195.978 47.495,193.833 48.081 C 192.596 48.420,190.658 48.958,189.527 49.278 C 188.396 49.598,187.429 49.818,187.378 49.767 C 187.327 49.716,187.428 49.625,187.601 49.563 C 187.775 49.502,189.079 48.947,190.500 48.328 C 201.572 43.510,223.243 34.351,239.583 27.582 C 243.067 26.139,246.817 24.583,247.917 24.124 C 249.017 23.666,251.154 22.785,252.667 22.167 C 255.886 20.853,259.242 19.474,261.583 18.503 C 266.464 16.480,269.901 15.203,274.583 13.671 C 277.701 12.650,281.508 11.326,292.083 7.582 C 296.760 5.927,300.259 4.696,306.750 2.424 C 310.050 1.269,312.900 0.256,313.083 0.173 C 313.283 0.083,250.409 0.018,156.708 0.011 L 0.000 0.000 0.000 117.917 M314.507 0.546 C 314.832 0.842,317.607 3.225,320.674 5.842 C 326.051 10.431,333.429 16.735,344.208 25.952 C 347.027 28.362,351.677 32.336,354.542 34.784 C 357.406 37.232,361.775 40.967,364.250 43.083 C 368.644 46.841,373.069 50.623,384.917 60.748 C 388.125 63.489,392.726 67.424,395.141 69.491 C 397.556 71.559,399.637 73.310,399.766 73.383 C 399.967 73.498,400.000 68.277,400.000 36.758 L 400.000 0.000 356.958 0.005 L 313.917 0.009 314.507 0.546 M296.583 65.679 C 302.591 66.179,311.833 68.638,311.833 69.736 C 311.833 69.959,310.935 73.051,309.746 76.926 C 309.519 77.665,309.333 78.316,309.333 78.374 C 309.333 78.431,309.261 78.669,309.172 78.901 L 309.012 79.325 307.895 78.824 C 299.243 74.942,286.232 74.434,276.833 77.611 C 262.450 82.474,254.619 95.022,254.591 113.250 C 254.559 134.831,265.254 147.925,284.750 150.173 C 292.415 151.057,302.181 149.774,308.265 147.084 C 309.429 146.569,309.238 146.321,310.025 149.362 C 310.388 150.767,310.939 152.876,311.249 154.049 L 311.811 156.181 310.864 156.604 C 308.097 157.842,304.303 158.865,299.500 159.668 C 292.619 160.819,281.240 160.722,276.014 159.467 C 255.867 154.632,244.286 141.393,242.075 120.669 C 238.381 86.052,261.472 62.757,296.583 65.679 M229.794 71.958 L 229.838 77.000 210.836 77.000 L 191.833 77.000 191.833 91.500 L 191.833 106.000 209.750 106.000 L 227.667 106.000 227.667 111.000 L 227.667 116.000 209.750 116.000 L 191.833 116.000 191.833 132.583 L 191.833 149.167 211.833 149.167 L 231.833 149.167 231.833 154.167 L 231.833 159.167 205.833 159.167 L 179.833 159.167 179.833 112.999 L 179.833 66.832 204.792 66.874 L 229.750 66.917 229.794 71.958 M169.667 72.083 L 169.667 77.167 155.583 77.167 L 141.500 77.167 141.500 118.167 L 141.500 159.167 135.417 159.167 L 129.333 159.167 129.333 118.167 L 129.333 77.167 115.250 77.167 L 101.167 77.167 101.167 72.083 L 101.167 67.000 135.417 67.000 L 169.667 67.000 169.667 72.083 M397.333 78.563 C 395.912 81.137,394.105 84.407,393.316 85.830 C 392.528 87.252,390.286 91.304,388.336 94.833 C 384.681 101.446,382.990 104.502,380.911 108.250 C 380.249 109.442,378.301 112.967,376.581 116.083 C 370.978 126.234,366.480 134.372,365.250 136.583 C 364.587 137.775,362.636 141.300,360.915 144.417 C 355.815 153.652,355.285 154.611,353.543 157.750 C 352.628 159.400,350.491 163.262,348.795 166.333 C 343.908 175.180,337.764 186.295,336.960 187.743 L 336.223 189.069 333.320 189.875 C 329.905 190.822,325.365 192.079,323.833 192.501 C 323.237 192.665,321.662 193.100,320.333 193.469 C 317.901 194.143,314.897 194.972,310.583 196.159 C 309.300 196.512,306.450 197.304,304.250 197.918 C 300.743 198.896,298.976 199.386,294.333 200.667 C 293.737 200.831,292.162 201.267,290.833 201.635 C 289.504 202.004,287.329 202.605,286.000 202.970 C 284.671 203.336,280.696 204.438,277.167 205.418 C 270.376 207.304,267.787 208.020,261.333 209.798 C 260.004 210.164,256.479 211.141,253.500 211.969 C 243.551 214.735,241.263 215.369,239.250 215.921 C 238.150 216.222,236.575 216.656,235.750 216.886 C 234.925 217.115,233.162 217.603,231.833 217.969 C 230.504 218.335,228.292 218.948,226.917 219.332 C 223.106 220.397,217.537 221.940,214.583 222.749 C 213.483 223.050,209.696 224.100,206.167 225.082 C 200.523 226.651,198.184 227.300,193.833 228.500 C 193.237 228.664,191.662 229.100,190.333 229.469 C 189.004 229.837,186.829 230.438,185.500 230.804 C 184.171 231.170,180.196 232.273,176.667 233.255 C 173.137 234.238,169.650 235.201,168.917 235.396 L 167.583 235.750 283.736 235.792 C 347.620 235.815,399.914 235.808,399.944 235.778 C 399.975 235.747,399.982 199.308,399.959 154.803 L 399.917 73.884 397.333 78.563 M7.199 93.625 C 8.019 96.253,11.384 106.883,12.699 111.000 C 15.239 118.956,17.017 125.015,18.018 129.129 C 18.278 130.197,18.320 130.130,18.992 127.583 C 19.681 124.972,20.529 122.239,22.328 116.833 C 23.730 112.622,24.684 109.819,27.916 100.417 C 28.703 98.125,29.697 95.219,30.123 93.958 L 30.899 91.667 34.050 91.667 C 36.986 91.667,37.194 91.687,37.084 91.958 C 37.019 92.119,36.890 92.475,36.798 92.750 C 36.637 93.230,35.129 97.451,30.278 111.000 C 29.047 114.438,27.089 119.912,25.927 123.167 C 24.764 126.421,23.242 130.677,22.544 132.625 L 21.274 136.167 18.304 136.194 C 16.670 136.210,15.212 136.228,15.063 136.236 C 14.862 136.246,14.631 135.757,14.164 134.333 C 13.818 133.279,12.547 129.379,11.339 125.667 C 10.131 121.954,9.039 118.617,8.912 118.250 C 8.786 117.883,7.435 113.758,5.911 109.083 C 4.386 104.408,2.549 98.783,1.827 96.583 C 1.106 94.383,0.466 92.377,0.406 92.125 L 0.297 91.667 3.442 91.667 L 6.588 91.667 7.199 93.625 M57.305 92.625 C 57.495 93.152,58.300 95.496,59.092 97.833 C 59.885 100.171,60.972 103.358,61.509 104.917 C 62.488 107.762,63.072 109.472,65.749 117.333 C 66.545 119.671,67.640 122.877,68.182 124.458 C 68.723 126.040,69.620 128.665,70.175 130.292 C 70.729 131.919,71.404 133.873,71.675 134.634 C 71.945 135.395,72.167 136.051,72.167 136.092 C 72.167 136.133,70.752 136.167,69.023 136.167 L 65.880 136.167 65.255 134.292 C 64.473 131.943,62.110 124.987,61.545 123.373 L 61.122 122.163 53.281 122.207 L 45.439 122.250 43.405 128.417 C 42.286 131.808,41.247 134.940,41.095 135.375 L 40.820 136.167 37.826 136.167 C 36.180 136.167,34.833 136.116,34.833 136.055 C 34.833 135.993,35.256 134.699,35.773 133.180 C 36.290 131.660,37.146 129.142,37.676 127.583 C 38.205 126.025,39.738 121.525,41.082 117.583 C 42.426 113.642,43.814 109.554,44.167 108.500 C 44.519 107.446,45.755 103.808,46.914 100.417 C 48.072 97.025,49.217 93.669,49.458 92.958 L 49.897 91.667 53.428 91.667 L 56.959 91.667 57.305 92.625 M88.472 97.045 C 90.336 99.999,93.983 105.769,96.576 109.867 C 101.625 117.844,103.748 121.457,105.957 125.830 L 107.347 128.583 107.248 127.583 C 106.883 123.919,106.798 120.584,106.720 106.958 L 106.633 91.667 109.400 91.667 L 112.167 91.667 112.167 113.917 L 112.167 136.167 109.198 136.167 L 106.230 136.167 99.323 125.143 C 88.644 108.099,87.642 106.429,85.209 101.617 C 84.430 100.078,83.775 98.840,83.754 98.867 C 83.732 98.895,83.780 99.892,83.860 101.083 C 83.939 102.275,84.050 110.644,84.105 119.682 L 84.205 136.114 82.410 136.224 C 81.423 136.284,80.176 136.333,79.641 136.333 L 78.667 136.333 78.667 114.000 L 78.667 91.667 81.875 91.670 L 85.083 91.673 88.472 97.045 M53.006 97.791 C 52.402 100.495,51.234 104.222,48.211 113.083 C 47.617 114.825,47.030 116.569,46.907 116.958 L 46.683 117.667 53.337 117.667 L 59.992 117.667 59.812 117.208 C 58.942 114.986,54.692 102.080,54.082 99.809 C 53.654 98.218,53.286 96.897,53.263 96.874 C 53.239 96.850,53.124 97.263,53.006 97.791 " stroke="none" fill="#fbfbfb" fill-rule="evenodd"></path><path id="path2" d="M289.961 75.454 C 290.261 75.491,290.711 75.490,290.961 75.452 C 291.212 75.414,290.967 75.384,290.417 75.385 C 289.867 75.386,289.662 75.417,289.961 75.454 M83.881 104.583 C 83.882 105.042,83.915 105.209,83.953 104.956 C 83.991 104.703,83.990 104.328,83.951 104.123 C 83.911 103.918,83.880 104.125,83.881 104.583 M84.053 111.333 C 84.053 111.929,84.084 112.173,84.121 111.875 C 84.158 111.577,84.158 111.090,84.121 110.792 C 84.084 110.494,84.053 110.737,84.053 111.333 M254.375 111.083 C 254.377 111.450,254.411 111.580,254.451 111.373 C 254.491 111.166,254.490 110.866,254.448 110.706 C 254.406 110.547,254.374 110.717,254.375 111.083 M106.718 115.583 C 106.719 116.133,106.750 116.338,106.787 116.039 C 106.825 115.739,106.824 115.289,106.786 115.039 C 106.748 114.788,106.717 115.033,106.718 115.583 M254.375 115.750 C 254.377 116.117,254.411 116.247,254.451 116.040 C 254.491 115.832,254.490 115.532,254.448 115.373 C 254.406 115.214,254.374 115.383,254.375 115.750 M106.875 121.417 C 106.877 121.783,106.911 121.914,106.951 121.706 C 106.991 121.499,106.990 121.199,106.948 121.040 C 106.906 120.880,106.874 121.050,106.875 121.417 M283.460 160.451 C 283.668 160.491,283.968 160.490,284.127 160.448 C 284.286 160.406,284.117 160.374,283.750 160.375 C 283.383 160.377,283.253 160.411,283.460 160.451 M291.294 160.451 C 291.501 160.491,291.801 160.490,291.960 160.448 C 292.120 160.406,291.950 160.374,291.583 160.375 C 291.217 160.377,291.086 160.411,291.294 160.451 " stroke="none" fill="#848484" fill-rule="evenodd"></path><path id="path3" d="M289.132 65.457 C 289.708 65.490,290.608 65.489,291.132 65.456 C 291.655 65.423,291.183 65.397,290.083 65.397 C 288.983 65.397,288.555 65.424,289.132 65.457 M204.789 66.958 L 229.662 67.001 229.710 72.001 L 229.757 77.000 229.754 71.958 L 229.750 66.917 204.833 66.916 L 179.917 66.915 204.789 66.958 M101.241 72.083 C 101.241 74.925,101.263 76.111,101.291 74.719 C 101.319 73.327,101.319 71.002,101.291 69.552 C 101.264 68.103,101.241 69.242,101.241 72.083 M141.415 118.167 C 141.415 140.762,141.435 150.006,141.458 138.708 C 141.482 127.410,141.482 108.923,141.458 97.625 C 141.435 86.327,141.415 95.571,141.415 118.167 M83.872 103.333 C 83.872 103.654,83.906 103.785,83.948 103.625 C 83.990 103.465,83.990 103.202,83.948 103.042 C 83.906 102.881,83.872 103.013,83.872 103.333 M200.696 106.125 C 205.616 106.149,213.716 106.149,218.696 106.125 C 223.675 106.100,219.650 106.080,209.750 106.080 C 199.850 106.080,195.775 106.100,200.696 106.125 M84.056 109.167 C 84.056 109.854,84.085 110.135,84.121 109.792 C 84.157 109.448,84.157 108.885,84.121 108.542 C 84.085 108.198,84.056 108.479,84.056 109.167 M241.734 113.917 C 241.734 115.383,241.760 115.961,241.791 115.200 C 241.822 114.440,241.822 113.240,241.790 112.534 C 241.759 111.828,241.734 112.450,241.734 113.917 M254.396 113.417 C 254.396 114.425,254.424 114.816,254.457 114.286 C 254.490 113.755,254.490 112.930,254.456 112.452 C 254.422 111.974,254.395 112.408,254.396 113.417 M106.720 117.500 C 106.720 118.096,106.750 118.340,106.787 118.042 C 106.824 117.744,106.824 117.256,106.787 116.958 C 106.750 116.660,106.720 116.904,106.720 117.500 M79.464 136.290 C 79.948 136.324,80.698 136.323,81.131 136.289 C 81.563 136.255,81.167 136.227,80.250 136.228 C 79.333 136.228,78.980 136.256,79.464 136.290 M214.742 177.375 L 214.083 178.083 214.792 177.425 C 215.450 176.812,215.577 176.667,215.450 176.667 C 215.423 176.667,215.105 176.985,214.742 177.375 M211.409 180.875 L 210.750 181.583 211.458 180.925 C 212.117 180.312,212.243 180.167,212.117 180.167 C 212.090 180.167,211.771 180.485,211.409 180.875 M208.824 183.625 L 208.250 184.250 208.875 183.676 C 209.219 183.360,209.500 183.078,209.500 183.051 C 209.500 182.923,209.359 183.043,208.824 183.625 " stroke="none" fill="#a4b1c6" fill-rule="evenodd"></path><path id="path4" d="M169.500 71.999 L 169.500 76.998 155.375 77.042 L 141.250 77.085 155.458 77.126 L 169.667 77.167 169.667 72.083 C 169.667 69.287,169.629 67.000,169.583 67.000 C 169.537 67.000,169.500 69.250,169.500 71.999 M108.292 77.125 C 112.165 77.150,118.502 77.150,122.375 77.125 C 126.248 77.100,123.079 77.080,115.333 77.080 C 107.587 77.080,104.419 77.100,108.292 77.125 M212.573 179.708 L 212.083 180.250 212.625 179.760 C 213.130 179.304,213.243 179.167,213.115 179.167 C 213.086 179.167,212.842 179.410,212.573 179.708 M207.240 185.375 L 206.750 185.917 207.292 185.427 C 207.797 184.971,207.910 184.833,207.781 184.833 C 207.752 184.833,207.509 185.077,207.240 185.375 " stroke="none" fill="#7c94bc" fill-rule="evenodd"></path></g></svg>